<svg xmlns="http://www.w3.org/2000/svg" xmlns:xlink="http://www.w3.org/1999/xlink" width="1920" zoomAndPan="magnify" viewBox="0 0 1440 525.000007" height="700" preserveAspectRatio="xMidYMid meet" version="1.0"><defs><g/><clipPath id="5a1c480b42"><path d="M 0.398438 0.828125 L 326.746094 0.828125 L 326.746094 327.175781 L 0.398438 327.175781 Z M 0.398438 0.828125 " clip-rule="nonzero"/></clipPath><clipPath id="0421e7eee1"><path d="M 383 204 L 1256.082031 204 L 1256.082031 284 L 383 284 Z M 383 204 " clip-rule="nonzero"/></clipPath><clipPath id="3272f092d9"><rect x="0" width="874" y="0" height="80"/></clipPath><clipPath id="80b0978d0a"><rect x="0" width="1257" y="0" height="328"/></clipPath></defs><g transform="matrix(1, 0, 0, 1, 92, 98)"><g clip-path="url(#80b0978d0a)"><path fill="#ffffff" d="M 1106.84375 70.515625 C 1111.625 70.515625 1115.769531 71.261719 1119.277344 72.75 C 1122.890625 74.136719 1126.289062 76.582031 1129.476562 80.09375 C 1130.21875 80.839844 1130.804688 81.210938 1131.230469 81.210938 C 1131.972656 81.210938 1132.34375 80.625 1132.34375 79.457031 L 1132.34375 74.988281 C 1132.34375 73.285156 1133.195312 72.433594 1134.894531 72.433594 L 1151.308594 72.433594 C 1153.007812 72.433594 1153.859375 73.285156 1153.859375 74.988281 L 1153.859375 156.234375 C 1153.859375 170.597656 1150.089844 180.8125 1142.542969 186.878906 C 1135.105469 192.945312 1124.855469 195.976562 1111.785156 195.976562 C 1101.691406 195.976562 1092.925781 193.957031 1085.488281 189.914062 C 1078.050781 185.976562 1073.21875 179.21875 1070.984375 169.640625 C 1070.878906 169.429688 1070.824219 169.109375 1070.824219 168.683594 C 1070.824219 167.40625 1071.625 166.769531 1073.21875 166.769531 L 1089.792969 166.769531 C 1091.171875 166.769531 1092.183594 167.40625 1092.820312 168.683594 C 1094.308594 172.300781 1096.59375 174.960938 1099.671875 176.664062 C 1102.753906 178.367188 1106.738281 179.21875 1111.625 179.21875 C 1118.640625 179.21875 1123.84375 177.621094 1127.246094 174.429688 C 1130.644531 171.238281 1132.34375 166.875 1132.34375 161.339844 L 1132.34375 153.359375 C 1132.34375 151.976562 1131.972656 151.285156 1131.230469 151.285156 C 1130.699219 151.285156 1130.113281 151.65625 1129.476562 152.402344 C 1126.289062 155.808594 1122.890625 158.253906 1119.277344 159.746094 C 1115.769531 161.128906 1111.625 161.820312 1106.84375 161.820312 C 1099.195312 161.820312 1092.394531 159.902344 1086.445312 156.074219 C 1080.496094 152.136719 1075.875 146.707031 1072.578125 139.792969 C 1069.285156 132.875 1067.636719 125.109375 1067.636719 116.488281 C 1067.636719 107.65625 1069.285156 99.78125 1072.578125 92.863281 C 1075.875 85.839844 1080.496094 80.359375 1086.445312 76.421875 C 1092.394531 72.484375 1099.195312 70.515625 1106.84375 70.515625 Z M 1111.945312 89.035156 C 1105.144531 89.035156 1099.671875 91.640625 1095.527344 96.855469 C 1091.386719 101.960938 1089.3125 108.398438 1089.3125 116.167969 C 1089.3125 123.9375 1091.386719 130.425781 1095.527344 135.640625 C 1099.671875 140.75 1105.144531 143.304688 1111.945312 143.304688 C 1116.40625 143.304688 1120.390625 142.132812 1123.898438 139.792969 C 1127.402344 137.449219 1130.113281 134.207031 1132.027344 130.054688 C 1134.046875 125.90625 1135.054688 121.277344 1135.054688 116.167969 C 1135.054688 111.058594 1134.046875 106.433594 1132.027344 102.28125 C 1130.113281 98.132812 1127.402344 94.886719 1123.898438 92.546875 C 1120.390625 90.203125 1116.40625 89.035156 1111.945312 89.035156 Z M 1111.945312 89.035156 " fill-opacity="1" fill-rule="evenodd"/><path fill="#ffffff" d="M 423.015625 70.515625 C 433.003906 70.515625 441.398438 72.964844 448.199219 77.859375 C 455.105469 82.648438 459.566406 89.40625 461.585938 98.132812 L 461.585938 98.929688 C 461.585938 100.3125 460.839844 101.003906 459.355469 101.003906 L 444.054688 101.003906 C 442.566406 101.003906 441.609375 100.3125 441.183594 98.929688 C 439.699219 94.992188 437.304688 92.121094 434.011719 90.3125 C 430.824219 88.394531 427.105469 87.4375 422.855469 87.4375 C 418.605469 87.4375 415.207031 88.289062 412.65625 89.992188 C 410.210938 91.585938 408.992188 93.769531 408.992188 96.535156 C 408.992188 99.835938 410.636719 102.175781 413.933594 103.558594 C 417.226562 104.941406 422.433594 106.324219 429.550781 107.707031 C 436.882812 109.089844 442.832031 110.582031 447.402344 112.175781 C 452.074219 113.667969 456.058594 116.222656 459.355469 119.839844 C 462.753906 123.457031 464.453125 128.460938 464.453125 134.84375 C 464.453125 143.675781 461.160156 150.699219 454.574219 155.914062 C 448.089844 161.128906 439.113281 163.734375 427.640625 163.734375 C 417.011719 163.734375 407.769531 161.339844 399.90625 156.550781 C 392.046875 151.65625 387.15625 144.367188 385.246094 134.683594 L 385.246094 134.046875 C 385.246094 132.554688 385.988281 131.8125 387.476562 131.8125 L 403.730469 131.8125 C 405.21875 131.8125 406.175781 132.503906 406.601562 133.886719 C 408.300781 138.035156 410.902344 141.230469 414.410156 143.464844 C 418.023438 145.699219 422.378906 146.816406 427.480469 146.816406 C 432.152344 146.816406 435.925781 145.910156 438.792969 144.101562 C 441.769531 142.292969 443.257812 139.738281 443.257812 136.441406 C 443.257812 132.824219 441.503906 130.214844 437.996094 128.617188 C 434.597656 127.023438 429.285156 125.53125 422.058594 124.148438 C 415.15625 122.765625 409.417969 121.277344 404.847656 119.679688 C 400.277344 118.082031 396.402344 115.53125 393.214844 112.019531 C 390.027344 108.402344 388.433594 103.503906 388.433594 97.332031 C 388.433594 88.5 391.671875 81.851562 398.152344 77.382812 C 404.742188 72.804688 413.027344 70.515625 423.015625 70.515625 Z M 423.015625 70.515625 " fill-opacity="1" fill-rule="nonzero"/><path fill="#ffffff" d="M 624.445312 70.515625 C 632.519531 70.515625 639.957031 72.21875 646.757812 75.625 C 653.558594 78.925781 659.027344 84.085938 663.171875 91.109375 C 667.316406 98.023438 669.386719 106.644531 669.386719 116.96875 L 669.386719 119.042969 C 669.386719 120.746094 668.539062 121.59375 666.835938 121.59375 L 604.523438 121.59375 C 603.671875 121.59375 603.035156 121.859375 602.609375 122.394531 C 602.183594 122.925781 602.078125 123.5625 602.292969 124.308594 C 603.035156 127.609375 603.992188 130.214844 605.160156 132.128906 C 607.285156 136.28125 610.101562 139.527344 613.605469 141.867188 C 617.21875 144.101562 621.3125 145.21875 625.878906 145.21875 C 630.234375 145.21875 634.0625 144.15625 637.355469 142.027344 C 640.753906 139.898438 643.359375 137.132812 645.164062 133.726562 C 645.800781 132.449219 646.757812 131.8125 648.03125 131.8125 L 664.925781 131.8125 C 665.777344 131.8125 666.414062 132.023438 666.835938 132.449219 C 667.371094 132.875 667.527344 133.40625 667.316406 134.046875 C 664.234375 142.878906 659.136719 150.058594 652.015625 155.59375 C 644.898438 161.019531 635.921875 163.734375 625.082031 163.734375 C 616.050781 163.734375 608.082031 161.765625 601.175781 157.828125 C 594.269531 153.890625 588.90625 148.464844 585.078125 141.546875 C 581.359375 134.523438 579.5 126.597656 579.5 117.765625 C 579.5 109.570312 581.148438 101.910156 584.441406 94.78125 C 587.839844 87.542969 592.890625 81.691406 599.582031 77.222656 C 606.382812 72.75 614.671875 70.515625 624.445312 70.515625 Z M 625.082031 87.597656 C 621.046875 87.597656 617.378906 88.394531 614.085938 89.992188 C 610.898438 91.585938 608.296875 93.980469 606.277344 97.171875 C 605.214844 98.449219 604.257812 100.261719 603.40625 102.601562 C 603.300781 102.8125 603.25 103.078125 603.25 103.398438 C 603.25 104.039062 603.460938 104.570312 603.886719 104.996094 C 604.3125 105.316406 604.894531 105.472656 605.636719 105.472656 L 644.527344 105.472656 C 645.378906 105.472656 646.011719 105.207031 646.4375 104.675781 C 646.863281 104.144531 646.917969 103.453125 646.597656 102.601562 C 645.960938 100.367188 645.109375 98.558594 644.046875 97.171875 C 642.03125 94.085938 639.375 91.746094 636.078125 90.152344 C 632.785156 88.449219 629.121094 87.597656 625.082031 87.597656 Z M 625.082031 87.597656 " fill-opacity="1" fill-rule="evenodd"/><path fill="#ffffff" d="M 716.828125 70.515625 C 722.246094 70.515625 727.292969 71.316406 731.96875 72.910156 C 736.640625 74.402344 740.625 76.636719 743.917969 79.617188 C 747.214844 82.488281 749.605469 85.839844 751.09375 89.671875 C 752.578125 93.503906 753.484375 97.332031 753.800781 101.164062 C 754.226562 104.996094 754.4375 109.730469 754.4375 115.371094 L 754.4375 159.425781 C 754.4375 161.128906 753.589844 161.980469 751.886719 161.980469 L 735.472656 161.980469 C 733.773438 161.980469 732.921875 161.128906 732.921875 159.425781 L 732.921875 154.957031 C 732.921875 153.464844 732.550781 152.722656 731.808594 152.722656 C 731.488281 152.722656 731.066406 153.039062 730.53125 153.679688 C 728.726562 155.914062 726.816406 157.617188 724.796875 158.785156 C 719.800781 162.085938 713.054688 163.734375 704.554688 163.734375 C 695.84375 163.734375 688.777344 161.449219 683.359375 156.871094 C 677.9375 152.191406 675.230469 145.699219 675.230469 137.398438 C 675.230469 128.460938 678.628906 121.648438 685.429688 116.96875 C 690.316406 113.5625 697.277344 111.007812 706.308594 109.304688 L 730.53125 104.835938 C 732.125 104.515625 732.871094 103.558594 732.765625 101.960938 C 732.234375 97.597656 730.851562 94.195312 728.621094 91.746094 C 725.964844 88.875 721.980469 87.4375 716.667969 87.4375 C 712.949219 87.4375 709.601562 88.5 706.625 90.628906 C 703.652344 92.652344 701.582031 95.417969 700.410156 98.929688 C 699.988281 100.3125 699.082031 101.003906 697.703125 101.003906 L 681.445312 101.003906 C 679.53125 101.003906 678.734375 100.101562 679.054688 98.292969 C 681.074219 89.246094 685.589844 82.382812 692.601562 77.699219 C 699.71875 72.910156 707.796875 70.515625 716.828125 70.515625 Z M 732.445312 121.117188 C 731.914062 120.691406 731.222656 120.585938 730.375 120.796875 L 712.046875 124.46875 C 706.308594 125.535156 702.164062 127.234375 699.613281 129.578125 C 697.703125 131.492188 696.746094 133.832031 696.746094 136.597656 C 696.746094 139.898438 697.914062 142.453125 700.25 144.261719 C 702.695312 145.964844 705.882812 146.816406 709.8125 146.816406 C 714.0625 146.816406 717.886719 145.964844 721.289062 144.261719 C 725.433594 142.238281 728.355469 139.578125 730.054688 136.28125 C 731.859375 132.875 732.921875 128.511719 733.242188 123.191406 L 733.242188 122.871094 C 733.242188 122.019531 732.976562 121.4375 732.445312 121.117188 Z M 732.445312 121.117188 " fill-opacity="1" fill-rule="evenodd"/><path fill="#ffffff" d="M 1208.933594 70.515625 C 1217.859375 70.515625 1225.773438 72.484375 1232.679688 76.421875 C 1239.691406 80.359375 1245.113281 85.839844 1248.9375 92.863281 C 1252.867188 99.78125 1254.832031 107.707031 1254.832031 116.648438 C 1254.832031 125.90625 1252.917969 134.097656 1249.09375 141.230469 C 1245.269531 148.359375 1239.851562 153.890625 1232.839844 157.828125 C 1225.933594 161.765625 1217.964844 163.734375 1208.933594 163.734375 C 1200.007812 163.734375 1192.09375 161.765625 1185.1875 157.828125 C 1178.28125 153.890625 1172.863281 148.359375 1168.929688 141.230469 C 1165.105469 134.097656 1163.191406 125.90625 1163.191406 116.648438 C 1163.191406 107.707031 1165.105469 99.726562 1168.929688 92.703125 C 1172.863281 85.679688 1178.28125 80.253906 1185.1875 76.421875 C 1192.09375 72.484375 1200.007812 70.515625 1208.933594 70.515625 Z M 1208.933594 89.035156 C 1204.363281 89.035156 1200.273438 90.203125 1196.660156 92.546875 C 1193.050781 94.886719 1190.234375 98.183594 1188.214844 102.441406 C 1186.195312 106.589844 1185.1875 111.328125 1185.1875 116.648438 C 1185.1875 125.160156 1187.363281 132.078125 1191.722656 137.398438 C 1196.183594 142.613281 1201.921875 145.21875 1208.933594 145.21875 C 1215.945312 145.21875 1221.628906 142.558594 1225.984375 137.238281 C 1230.34375 131.917969 1232.519531 125.054688 1232.519531 116.648438 C 1232.519531 108.558594 1230.34375 101.960938 1225.984375 96.855469 C 1221.628906 91.640625 1215.945312 89.035156 1208.933594 89.035156 Z M 1208.933594 89.035156 " fill-opacity="1" fill-rule="evenodd"/><path fill="#ffffff" d="M 500.035156 40.191406 C 501.734375 40.191406 502.582031 41.039062 502.582031 42.742188 L 502.582031 69.878906 C 502.582031 71.582031 503.433594 72.433594 505.132812 72.433594 L 517.246094 72.433594 C 518.945312 72.433594 519.796875 73.285156 519.796875 74.988281 L 519.796875 87.117188 C 519.796875 88.820312 518.945312 89.671875 517.246094 89.671875 L 505.132812 89.671875 C 503.433594 89.671875 502.582031 90.523438 502.582031 92.226562 L 502.582031 135.800781 C 502.582031 138.566406 503.007812 140.644531 503.859375 142.027344 C 504.816406 143.410156 506.832031 144.101562 509.914062 144.101562 L 517.085938 144.101562 C 518.785156 144.101562 519.636719 144.953125 519.636719 146.65625 L 519.636719 159.425781 C 519.636719 161.128906 518.785156 161.980469 517.085938 161.980469 L 501.945312 161.980469 C 488.027344 161.980469 481.066406 155.433594 481.066406 142.34375 L 481.066406 92.226562 C 481.066406 90.523438 480.21875 89.671875 478.519531 89.671875 L 470.390625 89.671875 C 468.691406 89.671875 467.839844 88.820312 467.839844 87.117188 L 467.839844 74.988281 C 467.839844 73.285156 468.691406 72.433594 470.390625 72.433594 L 478.519531 72.433594 C 480.21875 72.433594 481.066406 71.582031 481.066406 69.878906 L 481.066406 42.742188 C 481.066406 41.042969 481.917969 40.191406 483.617188 40.191406 Z M 500.035156 40.191406 " fill-opacity="1" fill-rule="nonzero"/><path fill="#ffffff" d="M 575.546875 70.515625 C 577.246094 70.515625 578.097656 71.371094 578.097656 73.070312 L 578.097656 88.714844 C 578.097656 90.417969 577.246094 91.269531 575.546875 91.269531 L 573.15625 91.269531 C 566.355469 91.269531 561.042969 93.078125 557.21875 96.695312 C 554.777344 99.140625 552.96875 102.28125 551.800781 106.113281 C 550.628906 109.835938 550.046875 114.625 550.046875 120.480469 L 550.046875 159.425781 C 550.046875 161.128906 549.199219 161.980469 547.496094 161.980469 L 531.082031 161.980469 C 529.382812 161.980469 528.53125 161.128906 528.53125 159.425781 L 528.53125 74.988281 C 528.53125 73.285156 529.382812 72.433594 531.082031 72.433594 L 547.496094 72.433594 C 549.199219 72.433594 550.046875 73.285156 550.046875 74.988281 L 550.046875 78.496094 C 550.046875 79.882812 550.417969 80.574219 551.164062 80.574219 C 551.695312 80.574219 552.277344 80.199219 552.917969 79.457031 C 555.996094 76.261719 559.34375 73.976562 562.957031 72.59375 C 566.570312 71.210938 570.765625 70.515625 575.546875 70.515625 Z M 575.546875 70.515625 " fill-opacity="1" fill-rule="nonzero"/><path fill="#ffffff" d="M 862.148438 70.515625 C 871.921875 70.515625 879.253906 73.390625 884.140625 79.136719 C 889.027344 84.882812 891.472656 92.917969 891.472656 103.238281 L 891.472656 159.425781 C 891.472656 161.128906 890.625 161.980469 888.921875 161.980469 L 872.507812 161.980469 C 870.808594 161.980469 869.957031 161.128906 869.957031 159.425781 L 869.957031 105.953125 C 869.957031 94.140625 865.28125 88.234375 855.933594 88.234375 C 851.46875 88.234375 847.910156 89.671875 845.253906 92.546875 C 843.234375 94.78125 841.800781 97.652344 840.949219 101.164062 C 840.207031 104.675781 839.835938 109.144531 839.835938 114.574219 L 839.835938 159.425781 C 839.835938 161.128906 838.984375 161.980469 837.285156 161.980469 L 820.871094 161.980469 C 819.167969 161.980469 818.320312 161.128906 818.320312 159.425781 L 818.320312 105.953125 C 818.320312 99.992188 817.097656 95.578125 814.652344 92.703125 C 812.210938 89.726562 808.703125 88.234375 804.136719 88.234375 C 799.671875 88.234375 796.058594 89.777344 793.300781 92.863281 C 791.492188 94.992188 790.164062 97.757812 789.316406 101.164062 C 788.464844 104.460938 788.039062 108.933594 788.039062 114.574219 L 788.039062 159.425781 C 788.039062 161.128906 787.1875 161.980469 785.488281 161.980469 L 769.074219 161.980469 C 767.371094 161.980469 766.523438 161.128906 766.523438 159.425781 L 766.523438 74.988281 C 766.523438 73.285156 767.371094 72.433594 769.074219 72.433594 L 785.488281 72.433594 C 787.1875 72.433594 788.039062 73.285156 788.039062 74.988281 L 788.039062 79.136719 C 788.039062 80.519531 788.410156 81.210938 789.152344 81.210938 C 789.683594 81.210938 790.269531 80.839844 790.90625 80.09375 C 796.964844 73.710938 804.136719 70.515625 812.421875 70.515625 C 817.734375 70.515625 822.304688 71.527344 826.128906 73.550781 C 830.058594 75.570312 832.929688 78.445312 834.734375 82.167969 C 835.265625 83.019531 835.746094 83.445312 836.167969 83.445312 C 836.699219 83.445312 837.175781 83.125 837.605469 82.488281 C 843.023438 74.507812 851.203125 70.515625 862.148438 70.515625 Z M 862.148438 70.515625 " fill-opacity="1" fill-rule="nonzero"/><path fill="#ffffff" d="M 922.761719 40.191406 C 924.460938 40.191406 925.3125 41.039062 925.3125 42.742188 L 925.3125 135.960938 C 925.3125 138.941406 925.84375 141.070312 926.902344 142.34375 C 928.074219 143.515625 929.984375 144.101562 932.640625 144.101562 L 935.832031 144.101562 C 937.53125 144.101562 938.378906 144.953125 938.378906 146.65625 L 938.378906 159.425781 C 938.378906 161.128906 937.53125 161.980469 935.832031 161.980469 L 924.511719 161.980469 C 917.714844 161.980469 912.558594 160.4375 909.054688 157.351562 C 905.546875 154.15625 903.792969 149.15625 903.792969 142.34375 L 903.792969 42.742188 C 903.792969 41.042969 904.644531 40.191406 906.34375 40.191406 Z M 922.761719 40.191406 " fill-opacity="1" fill-rule="nonzero"/><path fill="#ffffff" d="M 964.796875 72.433594 C 966.496094 72.433594 967.347656 73.285156 967.347656 74.988281 L 967.347656 159.425781 C 967.347656 161.128906 966.496094 161.980469 964.796875 161.980469 L 948.382812 161.980469 C 946.679688 161.980469 945.832031 161.128906 945.832031 159.425781 L 945.832031 74.988281 C 945.832031 73.285156 946.679688 72.433594 948.382812 72.433594 Z M 964.796875 72.433594 " fill-opacity="1" fill-rule="nonzero"/><path fill="#ffffff" d="M 1026.445312 70.515625 C 1040.257812 70.515625 1049.554688 75.519531 1054.335938 85.519531 C 1055.929688 89.03125 1056.941406 92.597656 1057.363281 96.214844 C 1057.789062 99.832031 1058 104.570312 1058 110.421875 L 1058 159.425781 C 1058 161.128906 1057.152344 161.980469 1055.453125 161.980469 L 1039.195312 161.980469 C 1037.496094 161.980469 1036.644531 161.128906 1036.644531 159.425781 L 1036.644531 110.101562 C 1036.644531 101.484375 1035.160156 95.523438 1032.183594 92.226562 C 1029.632812 89.566406 1025.863281 88.234375 1020.867188 88.234375 C 1014.8125 88.234375 1010.296875 90.042969 1007.320312 93.660156 C 1005.515625 95.789062 1004.1875 98.664062 1003.335938 102.28125 C 1002.488281 105.792969 1002.0625 110.476562 1002.0625 116.328125 L 1002.0625 159.425781 C 1002.0625 161.128906 1001.210938 161.980469 999.511719 161.980469 L 983.09375 161.980469 C 981.394531 161.980469 980.546875 161.128906 980.546875 159.425781 L 980.546875 74.988281 C 980.546875 73.285156 981.394531 72.433594 983.09375 72.433594 L 999.511719 72.433594 C 1001.210938 72.433594 1002.0625 73.285156 1002.0625 74.988281 L 1002.0625 79.136719 C 1002.0625 80.414062 1002.433594 81.054688 1003.175781 81.054688 C 1003.707031 81.054688 1004.292969 80.734375 1004.929688 80.09375 C 1008.117188 76.582031 1011.410156 74.136719 1014.8125 72.75 C 1018.210938 71.261719 1022.089844 70.515625 1026.445312 70.515625 Z M 1026.445312 70.515625 " fill-opacity="1" fill-rule="nonzero"/><path fill="#ffffff" d="M 956.667969 37.957031 C 960.28125 37.957031 963.363281 39.125 965.910156 41.46875 C 968.570312 43.808594 969.894531 46.734375 969.894531 50.246094 C 969.894531 53.863281 968.621094 56.84375 966.074219 59.183594 C 963.523438 61.417969 960.386719 62.535156 956.667969 62.535156 C 952.949219 62.535156 949.816406 61.417969 947.265625 59.183594 C 944.714844 56.949219 943.441406 53.96875 943.441406 50.246094 C 943.441406 46.734375 944.714844 43.808594 947.265625 41.46875 C 949.816406 39.125 952.949219 37.957031 956.667969 37.957031 Z M 956.667969 37.957031 " fill-opacity="1" fill-rule="nonzero"/><g clip-path="url(#5a1c480b42)"><path fill="#ffffff" d="M 163.574219 0.828125 C 253.691406 0.828125 326.746094 73.882812 326.746094 164 C 326.746094 254.121094 253.691406 327.175781 163.574219 327.175781 C 73.453125 327.175781 0.398438 254.121094 0.398438 164 C 0.398438 73.882812 73.453125 0.828125 163.574219 0.828125 Z M 114.726562 79.726562 C 97.253906 79.726562 81.550781 88.277344 69.480469 102.96875 C 58.800781 115.960938 51.472656 133.234375 48.90625 150.886719 C 46.226562 169.304688 48.875 186.90625 57.066406 200.125 C 66.578125 215.464844 82.726562 223.746094 103.632812 223.09375 C 104.351562 223.070312 105.0625 223.035156 105.773438 222.996094 C 107.550781 222.886719 108.761719 224.78125 107.878906 226.324219 L 99.992188 240.066406 C 96.992188 245.285156 103.574219 250.710938 108.128906 246.773438 C 108.128906 246.773438 175.492188 194.339844 197.765625 175.773438 C 197.847656 175.707031 197.921875 175.640625 198.003906 175.578125 C 200.273438 173.683594 198.972656 170.257812 196.011719 170.242188 C 190.652344 170.210938 184.246094 170.167969 180.128906 170.136719 C 177.40625 170.117188 174.785156 171.113281 172.71875 172.886719 C 165.6875 178.929688 159.140625 183.871094 152.175781 188.175781 C 136.480469 197.867188 120.472656 203.191406 103.027344 203.738281 C 88.910156 204.179688 79.324219 199.261719 73.53125 189.917969 C 67.972656 180.949219 66.015625 167.898438 68.085938 153.675781 C 70.160156 139.417969 76.074219 125.449219 84.441406 115.269531 C 93.054688 104.785156 103.5 99.097656 114.726562 99.097656 C 126.515625 99.097656 138.734375 103.789062 151.855469 112.960938 C 162.976562 120.738281 174.039062 131.09375 187.785156 145.941406 C 189.707031 148.015625 191.890625 150.449219 194.125 152.917969 L 207.113281 167.296875 C 207.121094 167.292969 207.125 167.289062 207.128906 167.285156 C 212.308594 172.976562 216.445312 177.386719 220.207031 181.074219 C 225.816406 186.5625 230.726562 190.679688 235.394531 193.621094 C 241.355469 197.367188 247.085938 199.304688 252.890625 198.972656 C 263.375 198.375 271.414062 192.554688 275.695312 183.351562 C 279.152344 175.914062 280.003906 166.640625 278.457031 157.242188 C 276.953125 148.105469 273.253906 139.316406 267.898438 132.652344 C 261.488281 124.6875 252.945312 119.988281 243.242188 120.105469 C 234.226562 120.21875 227.027344 123.382812 217.195312 131.398438 C 216.894531 131.644531 216.25 132.203125 215.59375 132.769531 C 214.65625 133.585938 214.574219 135.019531 215.414062 135.933594 L 225.515625 146.988281 C 226.3125 147.859375 227.671875 147.960938 228.59375 147.222656 L 228.886719 146.988281 C 235.632812 141.484375 239.832031 139.523438 243.484375 139.476562 C 250.304688 139.394531 257.324219 148.121094 259.339844 160.382812 C 260.292969 166.195312 259.8125 171.585938 258.140625 175.171875 C 256.777344 178.101562 254.90625 179.453125 251.78125 179.632812 C 248.785156 179.804688 242.652344 175.9375 233.769531 167.242188 C 230.21875 163.757812 226.203125 159.476562 221.027344 153.78125 C 221.054688 153.757812 205.582031 136.746094 205.582031 136.746094 L 205.597656 136.734375 C 204.371094 135.382812 203.09375 133.972656 202 132.789062 C 187.398438 117.015625 175.453125 105.8125 162.960938 97.078125 C 146.839844 85.8125 130.96875 79.726562 114.726562 79.726562 Z M 114.726562 79.726562 " fill-opacity="1" fill-rule="evenodd"/></g><g clip-path="url(#0421e7eee1)"><g transform="matrix(1, 0, 0, 1, 383, 204)"><g clip-path="url(#3272f092d9)"><g fill="#ffffff" fill-opacity="1"><g transform="translate(1.030834, 62.80154)"><g><path d="M 1.671875 0 C 1.328125 0 1.066406 -0.101562 0.890625 -0.3125 C 0.722656 -0.53125 0.707031 -0.832031 0.84375 -1.21875 L 17.46875 -48.359375 C 17.644531 -48.921875 18.054688 -49.203125 18.703125 -49.203125 L 27.078125 -49.203125 C 27.640625 -49.203125 28.050781 -48.921875 28.3125 -48.359375 L 44.875 -1.21875 L 45.015625 -0.703125 C 45.015625 -0.492188 44.925781 -0.320312 44.75 -0.1875 C 44.582031 -0.0625 44.367188 0 44.109375 0 L 36.4375 0 C 35.832031 0 35.441406 -0.28125 35.265625 -0.84375 L 32.5 -9.28125 C 32.375 -9.84375 31.988281 -10.125 31.34375 -10.125 L 14.375 -10.125 C 13.78125 -10.125 13.394531 -9.84375 13.21875 -9.28125 L 10.453125 -0.84375 C 10.316406 -0.28125 9.925781 0 9.28125 0 Z M 28.4375 -18.25 C 28.78125 -18.25 29.023438 -18.351562 29.171875 -18.5625 C 29.328125 -18.78125 29.363281 -19.0625 29.28125 -19.40625 L 23.53125 -36.953125 C 23.40625 -37.421875 23.191406 -37.65625 22.890625 -37.65625 C 22.546875 -37.65625 22.3125 -37.421875 22.1875 -36.953125 L 16.515625 -19.40625 C 16.460938 -19.320312 16.4375 -19.191406 16.4375 -19.015625 C 16.4375 -18.503906 16.738281 -18.25 17.34375 -18.25 Z M 28.4375 -18.25 "/></g></g></g><g fill="#ffffff" fill-opacity="1"><g transform="translate(46.809801, 62.80154)"><g><path d="M 5.421875 0 C 4.734375 0 4.390625 -0.34375 4.390625 -1.03125 L 4.390625 -48.171875 C 4.390625 -48.859375 4.734375 -49.203125 5.421875 -49.203125 L 12.640625 -49.203125 C 13.328125 -49.203125 13.671875 -48.859375 13.671875 -48.171875 L 13.671875 -1.03125 C 13.671875 -0.34375 13.328125 0 12.640625 0 Z M 5.421875 0 "/></g></g></g><g fill="#ffffff" fill-opacity="1"><g transform="translate(64.863474, 62.80154)"><g/></g></g><g fill="#ffffff" fill-opacity="1"><g transform="translate(82.14343, 62.80154)"><g><path d="M 16.703125 0 C 16.015625 0 15.671875 -0.34375 15.671875 -1.03125 L 15.671875 -39.84375 C 15.671875 -40.539062 15.328125 -40.890625 14.640625 -40.890625 L 1.671875 -40.890625 C 0.984375 -40.890625 0.640625 -41.234375 0.640625 -41.921875 L 0.640625 -48.171875 C 0.640625 -48.859375 0.984375 -49.203125 1.671875 -49.203125 L 38.890625 -49.203125 C 39.578125 -49.203125 39.921875 -48.859375 39.921875 -48.171875 L 39.921875 -41.921875 C 39.921875 -41.234375 39.578125 -40.890625 38.890625 -40.890625 L 25.984375 -40.890625 C 25.296875 -40.890625 24.953125 -40.539062 24.953125 -39.84375 L 24.953125 -1.03125 C 24.953125 -0.34375 24.609375 0 23.921875 0 Z M 16.703125 0 "/></g></g></g><g fill="#ffffff" fill-opacity="1"><g transform="translate(119.281734, 62.80154)"><g><path d="M 4.96875 0 C 4.28125 0 3.9375 -0.34375 3.9375 -1.03125 L 3.9375 -35.140625 C 3.9375 -35.828125 4.28125 -36.171875 4.96875 -36.171875 L 11.609375 -36.171875 C 12.296875 -36.171875 12.640625 -35.828125 12.640625 -35.140625 L 12.640625 -33.71875 C 12.640625 -33.164062 12.789062 -32.890625 13.09375 -32.890625 C 13.300781 -32.890625 13.535156 -33.039062 13.796875 -33.34375 C 15.046875 -34.625 16.398438 -35.546875 17.859375 -36.109375 C 19.316406 -36.671875 21.015625 -36.953125 22.953125 -36.953125 C 23.640625 -36.953125 23.984375 -36.609375 23.984375 -35.921875 L 23.984375 -29.59375 C 23.984375 -28.90625 23.640625 -28.5625 22.953125 -28.5625 L 21.984375 -28.5625 C 19.234375 -28.5625 17.085938 -27.832031 15.546875 -26.375 C 14.554688 -25.382812 13.820312 -24.125 13.34375 -22.59375 C 12.875 -21.070312 12.640625 -19.128906 12.640625 -16.765625 L 12.640625 -1.03125 C 12.640625 -0.34375 12.296875 0 11.609375 0 Z M 4.96875 0 "/></g></g></g><g fill="#ffffff" fill-opacity="1"><g transform="translate(144.10548, 62.80154)"><g><path d="M 14.375 0.703125 C 10.851562 0.703125 7.992188 -0.226562 5.796875 -2.09375 C 3.609375 -3.96875 2.515625 -6.582031 2.515625 -9.9375 C 2.515625 -13.539062 3.890625 -16.289062 6.640625 -18.1875 C 8.617188 -19.5625 11.4375 -20.59375 15.09375 -21.28125 L 24.890625 -23.078125 C 25.535156 -23.210938 25.835938 -23.601562 25.796875 -24.25 C 25.578125 -26.007812 25.015625 -27.382812 24.109375 -28.375 C 23.035156 -29.53125 21.425781 -30.109375 19.28125 -30.109375 C 17.78125 -30.109375 16.425781 -29.6875 15.21875 -28.84375 C 14.007812 -28.007812 13.171875 -26.882812 12.703125 -25.46875 C 12.535156 -24.914062 12.171875 -24.640625 11.609375 -24.640625 L 5.03125 -24.640625 C 4.257812 -24.640625 3.9375 -25.003906 4.0625 -25.734375 C 4.875 -29.378906 6.707031 -32.160156 9.5625 -34.078125 C 12.425781 -35.992188 15.6875 -36.953125 19.34375 -36.953125 C 21.539062 -36.953125 23.582031 -36.640625 25.46875 -36.015625 C 27.363281 -35.390625 28.976562 -34.476562 30.3125 -33.28125 C 31.644531 -32.113281 32.609375 -30.753906 33.203125 -29.203125 C 33.804688 -27.660156 34.179688 -26.113281 34.328125 -24.5625 C 34.484375 -23.019531 34.5625 -21.109375 34.5625 -18.828125 L 34.5625 -1.03125 C 34.5625 -0.34375 34.21875 0 33.53125 0 L 26.890625 0 C 26.203125 0 25.859375 -0.34375 25.859375 -1.03125 L 25.859375 -2.84375 C 25.859375 -3.4375 25.707031 -3.734375 25.40625 -3.734375 C 25.28125 -3.734375 25.109375 -3.609375 24.890625 -3.359375 C 24.160156 -2.453125 23.382812 -1.765625 22.5625 -1.296875 C 20.539062 0.0351562 17.8125 0.703125 14.375 0.703125 Z M 16.515625 -6.125 C 18.234375 -6.125 19.78125 -6.46875 21.15625 -7.15625 C 22.832031 -7.976562 24.023438 -9.066406 24.734375 -10.421875 C 25.441406 -11.773438 25.859375 -13.523438 25.984375 -15.671875 L 25.984375 -15.796875 C 25.984375 -16.140625 25.875 -16.382812 25.65625 -16.53125 C 25.445312 -16.6875 25.171875 -16.722656 24.828125 -16.640625 L 17.40625 -15.15625 C 15.082031 -14.726562 13.40625 -14.039062 12.375 -13.09375 C 11.601562 -12.3125 11.21875 -11.363281 11.21875 -10.25 C 11.21875 -8.914062 11.703125 -7.894531 12.671875 -7.1875 C 13.640625 -6.476562 14.921875 -6.125 16.515625 -6.125 Z M 16.515625 -6.125 "/></g></g></g><g fill="#ffffff" fill-opacity="1"><g transform="translate(182.211632, 62.80154)"><g><path d="M 4.96875 0 C 4.28125 0 3.9375 -0.34375 3.9375 -1.03125 L 3.9375 -35.140625 C 3.9375 -35.828125 4.28125 -36.171875 4.96875 -36.171875 L 11.609375 -36.171875 C 12.296875 -36.171875 12.640625 -35.828125 12.640625 -35.140625 L 12.640625 -33.46875 C 12.640625 -32.945312 12.789062 -32.6875 13.09375 -32.6875 C 13.300781 -32.6875 13.535156 -32.816406 13.796875 -33.078125 C 15.085938 -34.492188 16.421875 -35.492188 17.796875 -36.078125 C 19.171875 -36.660156 20.738281 -36.953125 22.5 -36.953125 C 28.09375 -36.953125 31.859375 -34.929688 33.796875 -30.890625 C 34.429688 -29.472656 34.832031 -28.03125 35 -26.5625 C 35.175781 -25.101562 35.265625 -23.191406 35.265625 -20.828125 L 35.265625 -1.03125 C 35.265625 -0.34375 34.921875 0 34.234375 0 L 27.65625 0 C 26.96875 0 26.625 -0.34375 26.625 -1.03125 L 26.625 -20.953125 C 26.625 -24.441406 26.023438 -26.847656 24.828125 -28.171875 C 23.796875 -29.253906 22.269531 -29.796875 20.25 -29.796875 C 17.800781 -29.796875 15.972656 -29.0625 14.765625 -27.59375 C 14.035156 -26.738281 13.5 -25.585938 13.15625 -24.140625 C 12.8125 -22.703125 12.640625 -20.800781 12.640625 -18.4375 L 12.640625 -1.03125 C 12.640625 -0.34375 12.296875 0 11.609375 0 Z M 4.96875 0 "/></g></g></g><g fill="#ffffff" fill-opacity="1"><g transform="translate(221.220464, 62.80154)"><g><path d="M 19.609375 0.703125 C 15.304688 0.703125 11.5625 -0.269531 8.375 -2.21875 C 5.195312 -4.175781 3.222656 -7.113281 2.453125 -11.03125 L 2.453125 -11.28125 C 2.453125 -11.882812 2.753906 -12.1875 3.359375 -12.1875 L 9.9375 -12.1875 C 10.53125 -12.1875 10.914062 -11.90625 11.09375 -11.34375 C 11.78125 -9.664062 12.84375 -8.375 14.28125 -7.46875 C 15.71875 -6.570312 17.46875 -6.125 19.53125 -6.125 C 21.425781 -6.125 22.960938 -6.488281 24.140625 -7.21875 C 25.328125 -7.945312 25.921875 -8.976562 25.921875 -10.3125 C 25.921875 -11.78125 25.222656 -12.832031 23.828125 -13.46875 C 22.429688 -14.113281 20.269531 -14.71875 17.34375 -15.28125 C 14.550781 -15.84375 12.226562 -16.445312 10.375 -17.09375 C 8.53125 -17.738281 6.960938 -18.78125 5.671875 -20.21875 C 4.378906 -21.65625 3.734375 -23.617188 3.734375 -26.109375 C 3.734375 -29.679688 5.054688 -32.378906 7.703125 -34.203125 C 10.347656 -36.035156 13.691406 -36.953125 17.734375 -36.953125 C 21.773438 -36.953125 25.179688 -35.972656 27.953125 -34.015625 C 30.722656 -32.054688 32.519531 -29.316406 33.34375 -25.796875 L 33.34375 -25.46875 C 33.34375 -24.914062 33.039062 -24.640625 32.4375 -24.640625 L 26.25 -24.640625 C 25.644531 -24.640625 25.253906 -24.914062 25.078125 -25.46875 C 24.484375 -27.0625 23.53125 -28.234375 22.21875 -28.984375 C 20.90625 -29.734375 19.390625 -30.109375 17.671875 -30.109375 C 15.953125 -30.109375 14.585938 -29.773438 13.578125 -29.109375 C 12.566406 -28.441406 12.0625 -27.550781 12.0625 -26.4375 C 12.0625 -25.101562 12.726562 -24.15625 14.0625 -23.59375 C 15.394531 -23.039062 17.5 -22.484375 20.375 -21.921875 C 23.34375 -21.367188 25.757812 -20.78125 27.625 -20.15625 C 29.5 -19.53125 31.113281 -18.484375 32.46875 -17.015625 C 33.820312 -15.554688 34.5 -13.539062 34.5 -10.96875 C 34.5 -7.394531 33.175781 -4.554688 30.53125 -2.453125 C 27.882812 -0.347656 24.242188 0.703125 19.609375 0.703125 Z M 19.609375 0.703125 "/></g></g></g><g fill="#ffffff" fill-opacity="1"><g transform="translate(258.359453, 62.80154)"><g><path d="M 12.1875 0 C 9.4375 0 7.347656 -0.628906 5.921875 -1.890625 C 4.503906 -3.160156 3.796875 -5.175781 3.796875 -7.9375 L 3.796875 -48.171875 C 3.796875 -48.859375 4.144531 -49.203125 4.84375 -49.203125 L 11.484375 -49.203125 C 12.171875 -49.203125 12.515625 -48.859375 12.515625 -48.171875 L 12.515625 -10.515625 C 12.515625 -9.304688 12.738281 -8.453125 13.1875 -7.953125 C 13.632812 -7.460938 14.394531 -7.21875 15.46875 -7.21875 L 16.765625 -7.21875 C 17.453125 -7.21875 17.796875 -6.875 17.796875 -6.1875 L 17.796875 -1.03125 C 17.796875 -0.34375 17.453125 0 16.765625 0 Z M 12.1875 0 "/></g></g></g><g fill="#ffffff" fill-opacity="1"><g transform="translate(277.831639, 62.80154)"><g><path d="M 14.375 0.703125 C 10.851562 0.703125 7.992188 -0.226562 5.796875 -2.09375 C 3.609375 -3.96875 2.515625 -6.582031 2.515625 -9.9375 C 2.515625 -13.539062 3.890625 -16.289062 6.640625 -18.1875 C 8.617188 -19.5625 11.4375 -20.59375 15.09375 -21.28125 L 24.890625 -23.078125 C 25.535156 -23.210938 25.835938 -23.601562 25.796875 -24.25 C 25.578125 -26.007812 25.015625 -27.382812 24.109375 -28.375 C 23.035156 -29.53125 21.425781 -30.109375 19.28125 -30.109375 C 17.78125 -30.109375 16.425781 -29.6875 15.21875 -28.84375 C 14.007812 -28.007812 13.171875 -26.882812 12.703125 -25.46875 C 12.535156 -24.914062 12.171875 -24.640625 11.609375 -24.640625 L 5.03125 -24.640625 C 4.257812 -24.640625 3.9375 -25.003906 4.0625 -25.734375 C 4.875 -29.378906 6.707031 -32.160156 9.5625 -34.078125 C 12.425781 -35.992188 15.6875 -36.953125 19.34375 -36.953125 C 21.539062 -36.953125 23.582031 -36.640625 25.46875 -36.015625 C 27.363281 -35.390625 28.976562 -34.476562 30.3125 -33.28125 C 31.644531 -32.113281 32.609375 -30.753906 33.203125 -29.203125 C 33.804688 -27.660156 34.179688 -26.113281 34.328125 -24.5625 C 34.484375 -23.019531 34.5625 -21.109375 34.5625 -18.828125 L 34.5625 -1.03125 C 34.5625 -0.34375 34.21875 0 33.53125 0 L 26.890625 0 C 26.203125 0 25.859375 -0.34375 25.859375 -1.03125 L 25.859375 -2.84375 C 25.859375 -3.4375 25.707031 -3.734375 25.40625 -3.734375 C 25.28125 -3.734375 25.109375 -3.609375 24.890625 -3.359375 C 24.160156 -2.453125 23.382812 -1.765625 22.5625 -1.296875 C 20.539062 0.0351562 17.8125 0.703125 14.375 0.703125 Z M 16.515625 -6.125 C 18.234375 -6.125 19.78125 -6.46875 21.15625 -7.15625 C 22.832031 -7.976562 24.023438 -9.066406 24.734375 -10.421875 C 25.441406 -11.773438 25.859375 -13.523438 25.984375 -15.671875 L 25.984375 -15.796875 C 25.984375 -16.140625 25.875 -16.382812 25.65625 -16.53125 C 25.445312 -16.6875 25.171875 -16.722656 24.828125 -16.640625 L 17.40625 -15.15625 C 15.082031 -14.726562 13.40625 -14.039062 12.375 -13.09375 C 11.601562 -12.3125 11.21875 -11.363281 11.21875 -10.25 C 11.21875 -8.914062 11.703125 -7.894531 12.671875 -7.1875 C 13.640625 -6.476562 14.921875 -6.125 16.515625 -6.125 Z M 16.515625 -6.125 "/></g></g></g><g fill="#ffffff" fill-opacity="1"><g transform="translate(315.937791, 62.80154)"><g><path d="M 15.28125 0 C 9.644531 0 6.828125 -2.644531 6.828125 -7.9375 L 6.828125 -28.171875 C 6.828125 -28.867188 6.484375 -29.21875 5.796875 -29.21875 L 2.515625 -29.21875 C 1.828125 -29.21875 1.484375 -29.5625 1.484375 -30.25 L 1.484375 -35.140625 C 1.484375 -35.828125 1.828125 -36.171875 2.515625 -36.171875 L 5.796875 -36.171875 C 6.484375 -36.171875 6.828125 -36.515625 6.828125 -37.203125 L 6.828125 -48.171875 C 6.828125 -48.859375 7.171875 -49.203125 7.859375 -49.203125 L 14.515625 -49.203125 C 15.203125 -49.203125 15.546875 -48.859375 15.546875 -48.171875 L 15.546875 -37.203125 C 15.546875 -36.515625 15.890625 -36.171875 16.578125 -36.171875 L 21.46875 -36.171875 C 22.15625 -36.171875 22.5 -35.828125 22.5 -35.140625 L 22.5 -30.25 C 22.5 -29.5625 22.15625 -29.21875 21.46875 -29.21875 L 16.578125 -29.21875 C 15.890625 -29.21875 15.546875 -28.867188 15.546875 -28.171875 L 15.546875 -10.578125 C 15.546875 -9.460938 15.726562 -8.625 16.09375 -8.0625 C 16.457031 -7.5 17.257812 -7.21875 18.5 -7.21875 L 21.40625 -7.21875 C 22.09375 -7.21875 22.4375 -6.875 22.4375 -6.1875 L 22.4375 -1.03125 C 22.4375 -0.34375 22.09375 0 21.40625 0 Z M 15.28125 0 "/></g></g></g><g fill="#ffffff" fill-opacity="1"><g transform="translate(340.632636, 62.80154)"><g><path d="M 4.96875 0 C 4.28125 0 3.9375 -0.34375 3.9375 -1.03125 L 3.9375 -35.140625 C 3.9375 -35.828125 4.28125 -36.171875 4.96875 -36.171875 L 11.609375 -36.171875 C 12.296875 -36.171875 12.640625 -35.828125 12.640625 -35.140625 L 12.640625 -1.03125 C 12.640625 -0.34375 12.296875 0 11.609375 0 Z M 8.3125 -40.171875 C 6.8125 -40.171875 5.546875 -40.617188 4.515625 -41.515625 C 3.484375 -42.421875 2.96875 -43.628906 2.96875 -45.140625 C 2.96875 -46.554688 3.484375 -47.738281 4.515625 -48.6875 C 5.546875 -49.632812 6.8125 -50.109375 8.3125 -50.109375 C 9.769531 -50.109375 11.023438 -49.632812 12.078125 -48.6875 C 13.140625 -47.738281 13.671875 -46.554688 13.671875 -45.140625 C 13.671875 -43.679688 13.15625 -42.488281 12.125 -41.5625 C 11.09375 -40.632812 9.820312 -40.171875 8.3125 -40.171875 Z M 8.3125 -40.171875 "/></g></g></g><g fill="#ffffff" fill-opacity="1"><g transform="translate(357.267796, 62.80154)"><g><path d="M 20.953125 0.703125 C 17.347656 0.703125 14.144531 -0.0859375 11.34375 -1.671875 C 8.550781 -3.265625 6.367188 -5.5 4.796875 -8.375 C 3.234375 -11.257812 2.453125 -14.570312 2.453125 -18.3125 C 2.453125 -21.925781 3.234375 -25.148438 4.796875 -27.984375 C 6.367188 -30.816406 8.550781 -33.019531 11.34375 -34.59375 C 14.144531 -36.164062 17.347656 -36.953125 20.953125 -36.953125 C 24.566406 -36.953125 27.78125 -36.15625 30.59375 -34.5625 C 33.414062 -32.96875 35.609375 -30.765625 37.171875 -27.953125 C 38.742188 -25.140625 39.53125 -21.925781 39.53125 -18.3125 C 39.53125 -14.570312 38.753906 -11.257812 37.203125 -8.375 C 35.660156 -5.5 33.476562 -3.265625 30.65625 -1.671875 C 27.84375 -0.0859375 24.609375 0.703125 20.953125 0.703125 Z M 20.953125 -6.765625 C 23.796875 -6.765625 26.097656 -7.835938 27.859375 -9.984375 C 29.617188 -12.140625 30.5 -14.914062 30.5 -18.3125 C 30.5 -21.582031 29.617188 -24.257812 27.859375 -26.34375 C 26.097656 -28.425781 23.796875 -29.46875 20.953125 -29.46875 C 19.109375 -29.46875 17.453125 -28.992188 15.984375 -28.046875 C 14.523438 -27.097656 13.382812 -25.773438 12.5625 -24.078125 C 11.75 -22.378906 11.34375 -20.457031 11.34375 -18.3125 C 11.34375 -14.875 12.234375 -12.085938 14.015625 -9.953125 C 15.804688 -7.828125 18.117188 -6.765625 20.953125 -6.765625 Z M 20.953125 -6.765625 "/></g></g></g><g fill="#ffffff" fill-opacity="1"><g transform="translate(399.307079, 62.80154)"><g><path d="M 4.96875 0 C 4.28125 0 3.9375 -0.34375 3.9375 -1.03125 L 3.9375 -35.140625 C 3.9375 -35.828125 4.28125 -36.171875 4.96875 -36.171875 L 11.609375 -36.171875 C 12.296875 -36.171875 12.640625 -35.828125 12.640625 -35.140625 L 12.640625 -33.46875 C 12.640625 -32.945312 12.789062 -32.6875 13.09375 -32.6875 C 13.300781 -32.6875 13.535156 -32.816406 13.796875 -33.078125 C 15.085938 -34.492188 16.421875 -35.492188 17.796875 -36.078125 C 19.171875 -36.660156 20.738281 -36.953125 22.5 -36.953125 C 28.09375 -36.953125 31.859375 -34.929688 33.796875 -30.890625 C 34.429688 -29.472656 34.832031 -28.03125 35 -26.5625 C 35.175781 -25.101562 35.265625 -23.191406 35.265625 -20.828125 L 35.265625 -1.03125 C 35.265625 -0.34375 34.921875 0 34.234375 0 L 27.65625 0 C 26.96875 0 26.625 -0.34375 26.625 -1.03125 L 26.625 -20.953125 C 26.625 -24.441406 26.023438 -26.847656 24.828125 -28.171875 C 23.796875 -29.253906 22.269531 -29.796875 20.25 -29.796875 C 17.800781 -29.796875 15.972656 -29.0625 14.765625 -27.59375 C 14.035156 -26.738281 13.5 -25.585938 13.15625 -24.140625 C 12.8125 -22.703125 12.640625 -20.800781 12.640625 -18.4375 L 12.640625 -1.03125 C 12.640625 -0.34375 12.296875 0 11.609375 0 Z M 4.96875 0 "/></g></g></g><g fill="#ffffff" fill-opacity="1"><g transform="translate(438.315932, 62.80154)"><g/></g></g><g fill="#ffffff" fill-opacity="1"><g transform="translate(455.595888, 62.80154)"><g><path d="M 8 0 C 7.3125 0 6.96875 -0.34375 6.96875 -1.03125 L 6.96875 -28.171875 C 6.96875 -28.867188 6.625 -29.21875 5.9375 -29.21875 L 2.515625 -29.21875 C 1.828125 -29.21875 1.484375 -29.5625 1.484375 -30.25 L 1.484375 -35.140625 C 1.484375 -35.828125 1.828125 -36.171875 2.515625 -36.171875 L 5.9375 -36.171875 C 6.625 -36.171875 6.96875 -36.515625 6.96875 -37.203125 L 6.96875 -39.84375 C 6.96875 -42.851562 7.828125 -45.164062 9.546875 -46.78125 C 11.265625 -48.394531 13.734375 -49.203125 16.953125 -49.203125 L 21.34375 -49.203125 C 22.03125 -49.203125 22.375 -48.859375 22.375 -48.171875 L 22.375 -43.328125 C 22.375 -42.640625 22.03125 -42.296875 21.34375 -42.296875 L 19.015625 -42.296875 C 16.828125 -42.296875 15.734375 -41.070312 15.734375 -38.625 L 15.734375 -37.203125 C 15.734375 -36.515625 16.078125 -36.171875 16.765625 -36.171875 L 21.34375 -36.171875 C 22.03125 -36.171875 22.375 -35.828125 22.375 -35.140625 L 22.375 -30.25 C 22.375 -29.5625 22.03125 -29.21875 21.34375 -29.21875 L 16.765625 -29.21875 C 16.078125 -29.21875 15.734375 -28.867188 15.734375 -28.171875 L 15.734375 -1.03125 C 15.734375 -0.34375 15.390625 0 14.703125 0 Z M 8 0 "/></g></g></g><g fill="#ffffff" fill-opacity="1"><g transform="translate(478.227237, 62.80154)"><g><path d="M 20.953125 0.703125 C 17.347656 0.703125 14.144531 -0.0859375 11.34375 -1.671875 C 8.550781 -3.265625 6.367188 -5.5 4.796875 -8.375 C 3.234375 -11.257812 2.453125 -14.570312 2.453125 -18.3125 C 2.453125 -21.925781 3.234375 -25.148438 4.796875 -27.984375 C 6.367188 -30.816406 8.550781 -33.019531 11.34375 -34.59375 C 14.144531 -36.164062 17.347656 -36.953125 20.953125 -36.953125 C 24.566406 -36.953125 27.78125 -36.15625 30.59375 -34.5625 C 33.414062 -32.96875 35.609375 -30.765625 37.171875 -27.953125 C 38.742188 -25.140625 39.53125 -21.925781 39.53125 -18.3125 C 39.53125 -14.570312 38.753906 -11.257812 37.203125 -8.375 C 35.660156 -5.5 33.476562 -3.265625 30.65625 -1.671875 C 27.84375 -0.0859375 24.609375 0.703125 20.953125 0.703125 Z M 20.953125 -6.765625 C 23.796875 -6.765625 26.097656 -7.835938 27.859375 -9.984375 C 29.617188 -12.140625 30.5 -14.914062 30.5 -18.3125 C 30.5 -21.582031 29.617188 -24.257812 27.859375 -26.34375 C 26.097656 -28.425781 23.796875 -29.46875 20.953125 -29.46875 C 19.109375 -29.46875 17.453125 -28.992188 15.984375 -28.046875 C 14.523438 -27.097656 13.382812 -25.773438 12.5625 -24.078125 C 11.75 -22.378906 11.34375 -20.457031 11.34375 -18.3125 C 11.34375 -14.875 12.234375 -12.085938 14.015625 -9.953125 C 15.804688 -7.828125 18.117188 -6.765625 20.953125 -6.765625 Z M 20.953125 -6.765625 "/></g></g></g><g fill="#ffffff" fill-opacity="1"><g transform="translate(520.26652, 62.80154)"><g><path d="M 4.96875 0 C 4.28125 0 3.9375 -0.34375 3.9375 -1.03125 L 3.9375 -35.140625 C 3.9375 -35.828125 4.28125 -36.171875 4.96875 -36.171875 L 11.609375 -36.171875 C 12.296875 -36.171875 12.640625 -35.828125 12.640625 -35.140625 L 12.640625 -33.71875 C 12.640625 -33.164062 12.789062 -32.890625 13.09375 -32.890625 C 13.300781 -32.890625 13.535156 -33.039062 13.796875 -33.34375 C 15.046875 -34.625 16.398438 -35.546875 17.859375 -36.109375 C 19.316406 -36.671875 21.015625 -36.953125 22.953125 -36.953125 C 23.640625 -36.953125 23.984375 -36.609375 23.984375 -35.921875 L 23.984375 -29.59375 C 23.984375 -28.90625 23.640625 -28.5625 22.953125 -28.5625 L 21.984375 -28.5625 C 19.234375 -28.5625 17.085938 -27.832031 15.546875 -26.375 C 14.554688 -25.382812 13.820312 -24.125 13.34375 -22.59375 C 12.875 -21.070312 12.640625 -19.128906 12.640625 -16.765625 L 12.640625 -1.03125 C 12.640625 -0.34375 12.296875 0 11.609375 0 Z M 4.96875 0 "/></g></g></g><g fill="#ffffff" fill-opacity="1"><g transform="translate(545.477177, 62.80154)"><g/></g></g><g fill="#ffffff" fill-opacity="1"><g transform="translate(562.757174, 62.80154)"><g><path d="M 26.375 0.90625 C 21.125 0.90625 16.710938 -0.242188 13.140625 -2.546875 C 9.578125 -4.847656 6.914062 -7.929688 5.15625 -11.796875 C 3.394531 -15.671875 2.515625 -19.953125 2.515625 -24.640625 C 2.515625 -29.316406 3.394531 -33.578125 5.15625 -37.421875 C 6.914062 -41.273438 9.578125 -44.351562 13.140625 -46.65625 C 16.710938 -48.957031 21.125 -50.109375 26.375 -50.109375 C 32.09375 -50.109375 36.742188 -48.726562 40.328125 -45.96875 C 43.921875 -43.21875 46.191406 -39.523438 47.140625 -34.890625 L 47.140625 -34.75 C 47.140625 -34.113281 46.816406 -33.796875 46.171875 -33.796875 L 38.046875 -33.796875 C 37.441406 -33.796875 37.078125 -34.09375 36.953125 -34.6875 C 36.347656 -36.96875 35.085938 -38.71875 33.171875 -39.9375 C 31.265625 -41.164062 28.910156 -41.78125 26.109375 -41.78125 C 21.679688 -41.78125 18.253906 -40.222656 15.828125 -37.109375 C 13.398438 -33.992188 12.1875 -29.835938 12.1875 -24.640625 C 12.1875 -19.390625 13.398438 -15.207031 15.828125 -12.09375 C 18.253906 -8.976562 21.679688 -7.421875 26.109375 -7.421875 C 28.910156 -7.421875 31.265625 -8.0625 33.171875 -9.34375 C 35.085938 -10.632812 36.347656 -12.53125 36.953125 -15.03125 C 37.078125 -15.664062 37.441406 -15.984375 38.046875 -15.984375 L 46.171875 -15.984375 C 46.515625 -15.984375 46.769531 -15.894531 46.9375 -15.71875 C 47.113281 -15.550781 47.179688 -15.320312 47.140625 -15.03125 C 46.234375 -10.082031 43.984375 -6.1875 40.390625 -3.34375 C 36.804688 -0.507812 32.132812 0.90625 26.375 0.90625 Z M 26.375 0.90625 "/></g></g></g><g fill="#ffffff" fill-opacity="1"><g transform="translate(612.211304, 62.80154)"><g><path d="M 5.03125 0 C 4.34375 0 4 -0.34375 4 -1.03125 L 4 -48.171875 C 4 -48.859375 4.34375 -49.203125 5.03125 -49.203125 L 11.671875 -49.203125 C 12.359375 -49.203125 12.703125 -48.859375 12.703125 -48.171875 L 12.703125 -33.46875 C 12.703125 -32.945312 12.851562 -32.6875 13.15625 -32.6875 C 13.375 -32.6875 13.609375 -32.816406 13.859375 -33.078125 C 15.109375 -34.492188 16.421875 -35.492188 17.796875 -36.078125 C 19.171875 -36.660156 20.738281 -36.953125 22.5 -36.953125 C 28.175781 -36.953125 31.941406 -34.929688 33.796875 -30.890625 C 34.484375 -29.472656 34.910156 -28.03125 35.078125 -26.5625 C 35.253906 -25.101562 35.34375 -23.191406 35.34375 -20.828125 L 35.34375 -1.03125 C 35.34375 -0.34375 35 0 34.3125 0 L 27.65625 0 C 26.96875 0 26.625 -0.34375 26.625 -1.03125 L 26.625 -20.953125 C 26.625 -22.804688 26.484375 -24.300781 26.203125 -25.4375 C 25.929688 -26.570312 25.492188 -27.484375 24.890625 -28.171875 C 23.859375 -29.253906 22.332031 -29.796875 20.3125 -29.796875 C 17.820312 -29.796875 15.972656 -29.0625 14.765625 -27.59375 C 14.035156 -26.738281 13.507812 -25.597656 13.1875 -24.171875 C 12.863281 -22.753906 12.703125 -20.84375 12.703125 -18.4375 L 12.703125 -1.03125 C 12.703125 -0.34375 12.359375 0 11.671875 0 Z M 5.03125 0 "/></g></g></g><g fill="#ffffff" fill-opacity="1"><g transform="translate(651.220157, 62.80154)"><g><path d="M 16.578125 0.703125 C 10.984375 0.703125 7.21875 -1.289062 5.28125 -5.28125 C 4.6875 -6.488281 4.28125 -7.8125 4.0625 -9.25 C 3.84375 -10.6875 3.734375 -12.71875 3.734375 -15.34375 L 3.734375 -35.140625 C 3.734375 -35.828125 4.078125 -36.171875 4.765625 -36.171875 L 11.40625 -36.171875 C 12.101562 -36.171875 12.453125 -35.828125 12.453125 -35.140625 L 12.453125 -15.28125 C 12.453125 -13.4375 12.585938 -11.941406 12.859375 -10.796875 C 13.140625 -9.660156 13.582031 -8.75 14.1875 -8.0625 C 15.21875 -6.988281 16.742188 -6.453125 18.765625 -6.453125 C 21.253906 -6.453125 23.101562 -7.179688 24.3125 -8.640625 C 25.039062 -9.503906 25.566406 -10.644531 25.890625 -12.0625 C 26.210938 -13.476562 26.375 -15.390625 26.375 -17.796875 L 26.375 -35.140625 C 26.375 -35.828125 26.71875 -36.171875 27.40625 -36.171875 L 34.046875 -36.171875 C 34.734375 -36.171875 35.078125 -35.828125 35.078125 -35.140625 L 35.078125 -1.03125 C 35.078125 -0.34375 34.734375 0 34.046875 0 L 27.40625 0 C 26.71875 0 26.375 -0.34375 26.375 -1.03125 L 26.375 -2.703125 C 26.375 -3.222656 26.222656 -3.484375 25.921875 -3.484375 C 25.703125 -3.484375 25.46875 -3.332031 25.21875 -3.03125 C 24.007812 -1.738281 22.707031 -0.789062 21.3125 -0.1875 C 19.914062 0.402344 18.335938 0.703125 16.578125 0.703125 Z M 16.578125 0.703125 "/></g></g></g><g fill="#ffffff" fill-opacity="1"><g transform="translate(690.29345, 62.80154)"><g><path d="M 4.96875 0 C 4.28125 0 3.9375 -0.34375 3.9375 -1.03125 L 3.9375 -35.140625 C 3.9375 -35.828125 4.28125 -36.171875 4.96875 -36.171875 L 11.609375 -36.171875 C 12.296875 -36.171875 12.640625 -35.828125 12.640625 -35.140625 L 12.640625 -33.71875 C 12.640625 -33.164062 12.789062 -32.890625 13.09375 -32.890625 C 13.300781 -32.890625 13.535156 -33.039062 13.796875 -33.34375 C 15.046875 -34.625 16.398438 -35.546875 17.859375 -36.109375 C 19.316406 -36.671875 21.015625 -36.953125 22.953125 -36.953125 C 23.640625 -36.953125 23.984375 -36.609375 23.984375 -35.921875 L 23.984375 -29.59375 C 23.984375 -28.90625 23.640625 -28.5625 22.953125 -28.5625 L 21.984375 -28.5625 C 19.234375 -28.5625 17.085938 -27.832031 15.546875 -26.375 C 14.554688 -25.382812 13.820312 -24.125 13.34375 -22.59375 C 12.875 -21.070312 12.640625 -19.128906 12.640625 -16.765625 L 12.640625 -1.03125 C 12.640625 -0.34375 12.296875 0 11.609375 0 Z M 4.96875 0 "/></g></g></g><g fill="#ffffff" fill-opacity="1"><g transform="translate(714.988212, 62.80154)"><g><path d="M 20.828125 0.703125 C 17.210938 0.703125 14.019531 -0.0859375 11.25 -1.671875 C 8.476562 -3.265625 6.316406 -5.5 4.765625 -8.375 C 3.222656 -11.257812 2.453125 -14.570312 2.453125 -18.3125 C 2.453125 -21.925781 3.222656 -25.148438 4.765625 -27.984375 C 6.316406 -30.816406 8.476562 -33.019531 11.25 -34.59375 C 14.019531 -36.164062 17.210938 -36.953125 20.828125 -36.953125 C 24.953125 -36.953125 28.488281 -35.953125 31.4375 -33.953125 C 34.382812 -31.953125 36.394531 -29.210938 37.46875 -25.734375 C 37.507812 -25.640625 37.53125 -25.53125 37.53125 -25.40625 C 37.53125 -25.1875 37.441406 -25.003906 37.265625 -24.859375 C 37.097656 -24.710938 36.863281 -24.640625 36.5625 -24.640625 L 29.21875 -24.640625 C 28.65625 -24.640625 28.242188 -24.894531 27.984375 -25.40625 C 27.378906 -26.820312 26.460938 -27.914062 25.234375 -28.6875 C 24.015625 -29.46875 22.546875 -29.859375 20.828125 -29.859375 C 17.992188 -29.859375 15.703125 -28.800781 13.953125 -26.6875 C 12.210938 -24.582031 11.34375 -21.789062 11.34375 -18.3125 C 11.34375 -14.695312 12.210938 -11.804688 13.953125 -9.640625 C 15.703125 -7.472656 17.992188 -6.390625 20.828125 -6.390625 C 22.671875 -6.390625 24.226562 -6.816406 25.5 -7.671875 C 26.769531 -8.535156 27.6875 -9.738281 28.25 -11.28125 C 28.457031 -11.882812 28.84375 -12.1875 29.40625 -12.1875 L 36.75 -12.1875 C 37.09375 -12.1875 37.347656 -12.085938 37.515625 -11.890625 C 37.691406 -11.703125 37.738281 -11.4375 37.65625 -11.09375 C 36.625 -7.394531 34.601562 -4.503906 31.59375 -2.421875 C 28.582031 -0.335938 24.992188 0.703125 20.828125 0.703125 Z M 20.828125 0.703125 "/></g></g></g><g fill="#ffffff" fill-opacity="1"><g transform="translate(755.028688, 62.80154)"><g><path d="M 5.03125 0 C 4.34375 0 4 -0.34375 4 -1.03125 L 4 -48.171875 C 4 -48.859375 4.34375 -49.203125 5.03125 -49.203125 L 11.671875 -49.203125 C 12.359375 -49.203125 12.703125 -48.859375 12.703125 -48.171875 L 12.703125 -33.46875 C 12.703125 -32.945312 12.851562 -32.6875 13.15625 -32.6875 C 13.375 -32.6875 13.609375 -32.816406 13.859375 -33.078125 C 15.109375 -34.492188 16.421875 -35.492188 17.796875 -36.078125 C 19.171875 -36.660156 20.738281 -36.953125 22.5 -36.953125 C 28.175781 -36.953125 31.941406 -34.929688 33.796875 -30.890625 C 34.484375 -29.472656 34.910156 -28.03125 35.078125 -26.5625 C 35.253906 -25.101562 35.34375 -23.191406 35.34375 -20.828125 L 35.34375 -1.03125 C 35.34375 -0.34375 35 0 34.3125 0 L 27.65625 0 C 26.96875 0 26.625 -0.34375 26.625 -1.03125 L 26.625 -20.953125 C 26.625 -22.804688 26.484375 -24.300781 26.203125 -25.4375 C 25.929688 -26.570312 25.492188 -27.484375 24.890625 -28.171875 C 23.859375 -29.253906 22.332031 -29.796875 20.3125 -29.796875 C 17.820312 -29.796875 15.972656 -29.0625 14.765625 -27.59375 C 14.035156 -26.738281 13.507812 -25.597656 13.1875 -24.171875 C 12.863281 -22.753906 12.703125 -20.84375 12.703125 -18.4375 L 12.703125 -1.03125 C 12.703125 -0.34375 12.359375 0 11.671875 0 Z M 5.03125 0 "/></g></g></g><g fill="#ffffff" fill-opacity="1"><g transform="translate(794.037541, 62.80154)"><g><path d="M 20.890625 0.703125 C 17.234375 0.703125 14.007812 -0.0859375 11.21875 -1.671875 C 8.425781 -3.265625 6.265625 -5.46875 4.734375 -8.28125 C 3.210938 -11.101562 2.453125 -14.296875 2.453125 -17.859375 C 2.453125 -21.171875 3.128906 -24.273438 4.484375 -27.171875 C 5.835938 -30.078125 7.878906 -32.429688 10.609375 -34.234375 C 13.335938 -36.046875 16.679688 -36.953125 20.640625 -36.953125 C 23.898438 -36.953125 26.90625 -36.273438 29.65625 -34.921875 C 32.414062 -33.566406 34.628906 -31.476562 36.296875 -28.65625 C 37.972656 -25.84375 38.8125 -22.351562 38.8125 -18.1875 L 38.8125 -17.34375 C 38.8125 -16.65625 38.46875 -16.3125 37.78125 -16.3125 L 12.578125 -16.3125 C 12.234375 -16.3125 11.972656 -16.203125 11.796875 -15.984375 C 11.628906 -15.773438 11.585938 -15.519531 11.671875 -15.21875 C 11.972656 -13.882812 12.359375 -12.832031 12.828125 -12.0625 C 13.691406 -10.382812 14.84375 -9.082031 16.28125 -8.15625 C 17.71875 -7.226562 19.363281 -6.765625 21.21875 -6.765625 C 22.976562 -6.765625 24.535156 -7.191406 25.890625 -8.046875 C 27.242188 -8.910156 28.285156 -10.03125 29.015625 -11.40625 C 29.273438 -11.925781 29.660156 -12.1875 30.171875 -12.1875 L 37.015625 -12.1875 C 37.359375 -12.1875 37.625 -12.097656 37.8125 -11.921875 C 38.007812 -11.753906 38.066406 -11.539062 37.984375 -11.28125 C 36.734375 -7.71875 34.664062 -4.828125 31.78125 -2.609375 C 28.90625 -0.398438 25.273438 0.703125 20.890625 0.703125 Z M 28.765625 -22.828125 C 29.109375 -22.828125 29.363281 -22.929688 29.53125 -23.140625 C 29.707031 -23.359375 29.726562 -23.640625 29.59375 -23.984375 C 29.34375 -24.890625 29 -25.625 28.5625 -26.1875 C 27.75 -27.425781 26.675781 -28.378906 25.34375 -29.046875 C 24.007812 -29.710938 22.523438 -30.046875 20.890625 -30.046875 C 19.253906 -30.046875 17.78125 -29.722656 16.46875 -29.078125 C 15.164062 -28.429688 14.101562 -27.46875 13.28125 -26.1875 C 12.851562 -25.664062 12.46875 -24.929688 12.125 -23.984375 C 12.082031 -23.898438 12.0625 -23.796875 12.0625 -23.671875 C 12.0625 -23.410156 12.144531 -23.203125 12.3125 -23.046875 C 12.488281 -22.898438 12.726562 -22.828125 13.03125 -22.828125 Z M 28.765625 -22.828125 "/></g></g></g><g fill="#ffffff" fill-opacity="1"><g transform="translate(835.303044, 62.80154)"><g><path d="M 19.609375 0.703125 C 15.304688 0.703125 11.5625 -0.269531 8.375 -2.21875 C 5.195312 -4.175781 3.222656 -7.113281 2.453125 -11.03125 L 2.453125 -11.28125 C 2.453125 -11.882812 2.753906 -12.1875 3.359375 -12.1875 L 9.9375 -12.1875 C 10.53125 -12.1875 10.914062 -11.90625 11.09375 -11.34375 C 11.78125 -9.664062 12.84375 -8.375 14.28125 -7.46875 C 15.71875 -6.570312 17.46875 -6.125 19.53125 -6.125 C 21.425781 -6.125 22.960938 -6.488281 24.140625 -7.21875 C 25.328125 -7.945312 25.921875 -8.976562 25.921875 -10.3125 C 25.921875 -11.78125 25.222656 -12.832031 23.828125 -13.46875 C 22.429688 -14.113281 20.269531 -14.71875 17.34375 -15.28125 C 14.550781 -15.84375 12.226562 -16.445312 10.375 -17.09375 C 8.53125 -17.738281 6.960938 -18.78125 5.671875 -20.21875 C 4.378906 -21.65625 3.734375 -23.617188 3.734375 -26.109375 C 3.734375 -29.679688 5.054688 -32.378906 7.703125 -34.203125 C 10.347656 -36.035156 13.691406 -36.953125 17.734375 -36.953125 C 21.773438 -36.953125 25.179688 -35.972656 27.953125 -34.015625 C 30.722656 -32.054688 32.519531 -29.316406 33.34375 -25.796875 L 33.34375 -25.46875 C 33.34375 -24.914062 33.039062 -24.640625 32.4375 -24.640625 L 26.25 -24.640625 C 25.644531 -24.640625 25.253906 -24.914062 25.078125 -25.46875 C 24.484375 -27.0625 23.53125 -28.234375 22.21875 -28.984375 C 20.90625 -29.734375 19.390625 -30.109375 17.671875 -30.109375 C 15.953125 -30.109375 14.585938 -29.773438 13.578125 -29.109375 C 12.566406 -28.441406 12.0625 -27.550781 12.0625 -26.4375 C 12.0625 -25.101562 12.726562 -24.15625 14.0625 -23.59375 C 15.394531 -23.039062 17.5 -22.484375 20.375 -21.921875 C 23.34375 -21.367188 25.757812 -20.78125 27.625 -20.15625 C 29.5 -19.53125 31.113281 -18.484375 32.46875 -17.015625 C 33.820312 -15.554688 34.5 -13.539062 34.5 -10.96875 C 34.5 -7.394531 33.175781 -4.554688 30.53125 -2.453125 C 27.882812 -0.347656 24.242188 0.703125 19.609375 0.703125 Z M 19.609375 0.703125 "/></g></g></g></g></g></g></g></g></svg>